<svg id="Layer_1" data-name="Layer 1" xmlns="http://www.w3.org/2000/svg" viewBox="0 0 546.66 267.82"><defs><style>.cls-1{fill:none;stroke:#f8f7f8;stroke-miterlimit:10;}.cls-2{fill:#dc3526;}.cls-3,.cls-5{isolation:isolate;font-family:Milkshake;}.cls-3{font-size:147.46px;}.cls-3,.cls-4,.cls-5{fill:#231f20;}.cls-5{font-size:37.14px;}.cls-6{fill:#f8f7f8;}</style></defs><title>boba_the_app_logo</title><rect class="cls-1" x="0.5" y="0.5" width="545.66" height="266.82"/><ellipse class="cls-2" cx="136.09" cy="97.28" rx="57.7" ry="47.73"/><polygon class="cls-2" points="136.14 209.3 85.46 119.93 186.83 119.93 136.14 209.3"/><text class="cls-3" transform="translate(192.63 167.33) scale(0.84 1)">Boba</text><ellipse class="cls-4" cx="131.01" cy="176.89" rx="4.71" ry="4.26"/><ellipse class="cls-4" cx="136.47" cy="191" rx="4.71" ry="4.26"/><ellipse class="cls-4" cx="143.51" cy="178.69" rx="4.71" ry="4.26"/><ellipse class="cls-4" cx="120.04" cy="167.87" rx="4.71" ry="4.26"/><ellipse class="cls-4" cx="136.92" cy="165.92" rx="4.71" ry="4.26"/><ellipse class="cls-4" cx="150.67" cy="166.56" rx="4.71" ry="4.26"/><ellipse class="cls-4" cx="127.39" cy="157.73" rx="4.71" ry="4.26"/><ellipse class="cls-4" cx="158.73" cy="156.39" rx="4.71" ry="4.26"/><ellipse class="cls-4" cx="142.79" cy="155.65" rx="4.71" ry="4.26"/><ellipse class="cls-4" cx="113.84" cy="154.81" rx="4.71" ry="4.26"/><text class="cls-5" transform="translate(256.98 199.15) scale(1.2 1)">The App</text><path class="cls-6" d="M477.91,376.37c3.4-4.87,8.39-11.63,15.31-10.15,7.27,1.54,5.4,10.17,2.58,14.68-6,9.64-14.83,18.18-23.09,25.91-2.36,2.2,1.18,5.73,3.53,3.53a197.89,197.89,0,0,0,19.15-20.54c4.31-5.38,9.24-11.69,7.8-19a11.67,11.67,0,0,0-12.88-9.59c-7.75.71-12.57,6.73-16.71,12.68-1.85,2.64,2.48,5.15,4.31,2.52Z" transform="translate(-338.2 -286.84)"/><path class="cls-6" d="M474.45,373.54c-4.26-5.8-9.14-11.64-16.74-12.6-6.65-.85-12.83,2.72-14.2,9.51-1.44,7.12,3.33,13.24,7.61,18.36A201,201,0,0,0,471.87,410c2.39,2.13,5.94-1.39,3.53-3.54-8.65-7.68-18-16.18-24.35-25.91-3.09-4.7-4.8-13.16,2.8-14.68,7.25-1.45,12.53,5.06,16.28,10.16,1.88,2.56,6.22.07,4.32-2.53Z" transform="translate(-338.2 -286.84)"/><path class="cls-6" d="M471.42,379.31l.17,23.09c0,2,2.81,3.47,4.26,1.77,6.2-7.26,13-14.3,18.64-22,3.46-4.66,5.22-11.45-.14-15.55-5.76-4.4-11.86,1.22-15.06,6a26.9,26.9,0,0,0-3.82,20.53c.52,2.6,4.07,2.15,4.82,0,1.77-5.09,3.54-10.18,5.43-15.23,1-2.64,2-4.14.17-.77l-3.92,7c-1.57,2.82,2.74,5.34,4.31,2.53,1.77-3.17,12.21-18.06,2-18.41-3.19-.11-5,2.51-6.14,5.09-2.58,6-4.53,12.29-6.66,18.43h4.82a21.62,21.62,0,0,1,1.78-14.06,20.45,20.45,0,0,1,4.07-5.65q2.76-3.61,6.56.56a6.12,6.12,0,0,1-.89,4.58c-2.23,4.25-6.31,7.94-9.42,11.57l-10.07,11.8,4.27,1.77-.17-23.09c0-3.21-5-3.22-5,0Z" transform="translate(-338.2 -286.84)"/><path class="cls-6" d="M472.12,377.78c-6.2-1.19-7.39-9.21-13.18-11.48-3.87-1.51-9-.42-10.32,4-1.53,5,2.75,11.62,5.23,15.6a59.08,59.08,0,0,0,13.46,14.87,2.53,2.53,0,0,0,3.59-.13,2.5,2.5,0,0,0,.68-1.64,59.49,59.49,0,0,0-1.51-15.9c-.61-2.67-3.95-2.05-4.82,0a10.84,10.84,0,0,1-3.62,4.48l4.18,1.11c-.85-2.47.49-4.87-.8-7.26a4.67,4.67,0,0,0-1.63-1.84c-.55-.36-3.19-.78-3.22-.9l-.64,2.43c1.32-1.34,2.52-1.83,2.42-4.05-.15-3.17-3.34-3.59-4.6-6.14-1.43-2.89-5.74-.36-4.32,2.52a5.63,5.63,0,0,0,2.23,2.77c1.18.92,1.46-.22,1.3.79-.23,1.48-1.62,1.43-1.1,3.47.39,1.56,1.41,2.06,2.64,2.89l1.58.25a2.53,2.53,0,0,1,.8,3.06A12.63,12.63,0,0,0,461,390a2.56,2.56,0,0,0,3.19,1.68,2.67,2.67,0,0,0,1-.58,15.62,15.62,0,0,0,4.91-6.69h-4.82A54,54,0,0,1,466.58,399l4.27-1.76a58.26,58.26,0,0,1-9.33-9.11c-2.72-3.41-6.47-8.35-7.41-12.71-1-4.63,2.8-5.36,5.55-2.48a53.7,53.7,0,0,1,3.28,4.45c2.1,2.69,4.46,4.6,7.85,5.25,3.15.61,4.49-4.21,1.33-4.82Z" transform="translate(-338.2 -286.84)"/><path class="cls-6" d="M470.84,408.79H471A2.5,2.5,0,0,0,472.3,404h-.13a2.5,2.5,0,0,0-1.33,4.82Z" transform="translate(-338.2 -286.84)"/><path class="cls-6" d="M474.16,411c3.22,0,3.22-5,0-5S470.94,411,474.16,411Z" transform="translate(-338.2 -286.84)"/><path class="cls-6" d="M474.16,411.1c3.22,0,3.22-5,0-5S470.94,411.1,474.16,411.1Z" transform="translate(-338.2 -286.84)"/><path class="cls-6" d="M474.29,411.17c3.22,0,3.23-5,0-5S471.07,411.17,474.29,411.17Z" transform="translate(-338.2 -286.84)"/><path class="cls-6" d="M474,411.1c3.22,0,3.22-5,0-5S470.78,411.1,474,411.1Z" transform="translate(-338.2 -286.84)"/><path class="cls-6" d="M456.3,378.75c3.22,0,3.22-5,0-5S453.08,378.75,456.3,378.75Z" transform="translate(-338.2 -286.84)"/><path class="cls-6" d="M464.58,381.5c3.21,0,3.22-5,0-5S461.35,381.5,464.58,381.5Z" transform="translate(-338.2 -286.84)"/><path class="cls-6" d="M456,373.44l12.24,16.32a2.55,2.55,0,0,0,3.42.9c2.91-1.78,6.72-5.4,4.24-9.1-2.15-3.22-6.74-2.26-8.79.54-1.24,1.7-1.26,3.69-1,5.71.22,1.7,1.32,3.51,1.2,5.23-.27,3.87-2.62,2.52-3.84-.24-2.26-5.13-.58-11-6.75-13.77-2.89-1.28-5.32,2.58-2.53,4.32a40.91,40.91,0,0,1,13.93,14.41l2.16-3.76.61.62c-.16-3.3-4.58-3.11-5,0-.61,4.54,3.35,8,7.7,8.3,5.48.32,9.2-4.41,12.09-8.39,1.7-2.35-2-5-3.93-3l-5.65,5.52,4.18,2.44,4.3-12.44-4.57.6,3,5.29a2.51,2.51,0,0,0,3.47.85,2.13,2.13,0,0,0,.45-.34,30.11,30.11,0,0,0,10.94-25.76l-4.91.67a23,23,0,0,1-3,16.4l4.57.59-1.73-10.45c-.5-2.95-4.7-2-4.91.67a15.89,15.89,0,0,1-23.51,12.77c-2.39-1.26-5.27,2-3,3.93,8.27,7.15,20.19-3.19,27.31-7.44,2.76-1.65.25-6-2.52-4.32-4.19,2.5-16.26,12.54-21.25,8.22l-3,3.93a20.91,20.91,0,0,0,31-17.09l-4.91.66,1.76,10.42c.37,2.21,3.55,2.31,4.57.6A28.22,28.22,0,0,0,497.78,367c-.52-2.75-5.13-2.15-4.91.66a25.41,25.41,0,0,1-9.47,22.22l3.92.51-3-5.3a2.52,2.52,0,0,0-3.48-.81,2.48,2.48,0,0,0-1.09,1.41l-4.32,12.41c-.84,2.44,2.48,4.09,4.18,2.43l5.65-5.53-3.93-3a19.18,19.18,0,0,1-3.93,4.45c-1.91,1.4-7.16,2.8-6.54-1.83h-5q.21,4.2,4.39,4.38a2.51,2.51,0,0,0,2.16-3.76A46.22,46.22,0,0,0,456.69,379l-2.53,4.32c4.81,2.13,3,9.2,5.36,13.18a8.35,8.35,0,0,0,6.82,4.26,6,6,0,0,0,5.58-4.06,9.42,9.42,0,0,0,.33-4.71c-.21-1.32-.71-2.57-1-3.87-.51-2.3.54-3.43-2.13-1.81l3.42.9-12.23-16.33c-1.91-2.54-6.25-.05-4.32,2.53Z" transform="translate(-338.2 -286.84)"/><path class="cls-6" d="M468.67,401.51a7.11,7.11,0,0,0,4.73,7,2.48,2.48,0,0,0,2.82-1.15l.85-1.92a2.59,2.59,0,0,0-.9-3.43,2.53,2.53,0,0,0-3.42.9l-.85,1.93,2.88-1.14c.25.09,0,0-.09-.07-.62-.35.09.13-.21-.13l-.36-.36c-.28-.33.28.43-.13-.21-.06-.1-.19-.34-.08-.09-.07-.16-.1-.32-.16-.48v-.25h0v-.64a2.5,2.5,0,0,0-5,0Z" transform="translate(-338.2 -286.84)"/><path class="cls-6" d="M492.41,374.94c3.21,0,3.22-5,0-5S489.18,374.94,492.41,374.94Z" transform="translate(-338.2 -286.84)"/><path class="cls-6" d="M455.5,380.77c3.21,0,3.22-5,0-5S452.27,380.77,455.5,380.77Z" transform="translate(-338.2 -286.84)"/><path class="cls-6" d="M458.35,369.24a15.91,15.91,0,0,1,5,5l3.42-3.42a23.53,23.53,0,0,1-7.72-5.84l-3.53,3.54c4.38,3.47,8.68,7.09,13.17,10.42,2.91,2.16,6.77,3.5,9.47.25,2-2.46-1.48-6-3.54-3.54-1.46,1.76-14-9.39-15.57-10.67a2.5,2.5,0,0,0-3.53,3.54,26.85,26.85,0,0,0,8.73,6.62c2.09,1,4.88-1.16,3.42-3.42a21.86,21.86,0,0,0-6.81-6.76c-2.73-1.72-5.24,2.6-2.52,4.32Z" transform="translate(-338.2 -286.84)"/></svg>